<svg xmlns="http://www.w3.org/2000/svg" width="422" height="137" viewBox="0 0 422 137">
    <path fill="#FFF" fill-rule="evenodd" d="M412.148 7.046L402.842 0l-9.85 7.046L383.683 0l-9.85 7.046L364.529 0l-9.851 7.046L345.37 0l-9.852 7.046L326.213 0l-9.85 7.046L307.055 0l-9.85 7.046L287.898 0l-9.851 7.046L268.742 0l-9.852 7.046L249.583 0l-9.85 7.046L230.426 0l-9.85 7.046L211.27 0l-9.852 7.046L192.112 0l-9.851 7.046L172.954 0l-9.85 7.046L153.797 0l-9.85 7.046L134.638 0l-9.85 7.046L115.482 0l-9.85 7.046L96.325 0l-9.85 7.046L77.168 0l-9.85 7.046L58.01 0 48.16 7.046 38.853 0l-9.85 7.046L19.696 0 9.845 7.046.538 0 0 137h421.924L422 0z"/>
</svg>
