<svg xmlns="http://www.w3.org/2000/svg" width="40" height="40" viewBox="0 0 40 40">
    <g fill="#FFF" fill-rule="evenodd">
        <path d="M20.113 25.454l3.514-3.515a.765.765 0 0 0-1.081-1.081l-3.515 3.514-3.515-3.514 3.515-3.515a.765.765 0 0 0-1.081-1.081l-3.515 3.514-1.217-1.216-2.163 2.163a5.737 5.737 0 0 0-.73 7.218L7 31.267l1.622 1.622 3.326-3.326a5.737 5.737 0 0 0 7.218-.73l2.163-2.162-1.216-1.217zM26.67 21.33l2.163-2.164a5.737 5.737 0 0 0 .73-7.218l3.326-3.326L31.267 7l-3.326 3.326a5.737 5.737 0 0 0-7.218.73l-2.163 2.162 8.11 8.111z"/>
    </g>
</svg>
