<svg version="1.1" xmlns="http://www.w3.org/2000/svg" x="0" y="0" width="20" height="20" viewBox="0 0 20 20" enable-background="new 0 0 20 20" xml:space="preserve"><path fill="#FFFFFF" d="M11.68 2.8c1.15 0.34 1.97 1.28 2.59 2.42l4.41 8.16c0.59 1.1 0.71 2.24 0.36 3.41 -0.35 1.18-1.07 2.07-2.17 2.66s-2.24 0.71-3.41 0.36c-1.18-0.35-2.07-1.07-2.66-2.17l-0.56-1.03c0 0-1.21 0.65-2.39 1.29s-2.5-1.73-1.29-2.39c1.21-0.65 1.57-0.85 1.57-0.85 0.85-0.46 1.75-0.54 2.76-0.24s1.72 0.86 2.18 1.71l0.11 0.21c0.24 0.44 0.6 0.74 1.04 0.87 0.45 0.13 0.91 0.08 1.35-0.16 0.44-0.24 0.74-0.6 0.87-1.04 0.13-0.45 0.08-0.91-0.16-1.35l-2.45-4.52c-0.34 0.43-0.81 0.82-1.41 1.14 -1.1 0.59-2.24 0.71-3.41 0.36 -1.18-0.35-2.05-1.08-2.65-2.17C5.41 7.68 5.59 5.99 6.89 4.38L0.77 2.7 1.51 0 11.68 2.8zM9.82 9.06c0.45 0.13 0.91 0.08 1.35-0.16 0.44-0.24 0.74-0.6 0.87-1.04 0.13-0.45 0.08-0.91-0.16-1.35 -0.24-0.44-0.6-0.74-1.04-0.87C10.39 5.51 9.93 5.56 9.49 5.8c-0.44 0.24-0.74 0.6-0.87 1.04S8.53 7.75 8.77 8.19C9.01 8.63 9.35 8.92 9.82 9.06z"/></svg>