<svg version="1.1" xmlns="http://www.w3.org/2000/svg" x="0" y="0" width="20" height="20" viewBox="0 0 20 20" enable-background="new 0 0 20 20" xml:space="preserve"><path fill="#FFFFFF" d="M12.44 2.8c1.15 0.34 1.97 1.28 2.59 2.42l4.41 8.16c0.59 1.1 0.71 2.24 0.36 3.41 -0.35 1.18-1.07 2.07-2.17 2.66s-2.24 0.71-3.41 0.36c-1.18-0.35-2.07-1.07-2.66-2.17L11 16.61c0 0-1.21 0.65-2.39 1.29s-2.5-1.73-1.29-2.39c1.21-0.65 1.57-0.85 1.57-0.85 0.85-0.46 1.75-0.54 2.76-0.24s1.72 0.86 2.18 1.71l0.11 0.21c0.24 0.44 0.6 0.74 1.04 0.87 0.45 0.13 0.91 0.08 1.35-0.16 0.44-0.24 0.74-0.6 0.87-1.04 0.13-0.45 0.08-0.91-0.16-1.35l-2.45-4.52c-0.34 0.43-0.81 0.82-1.41 1.14 -1.1 0.59-2.24 0.71-3.41 0.36 -1.18-0.35-2.05-1.08-2.65-2.17C6.17 7.68 6.35 5.99 7.65 4.38L1.53 2.7 2.27 0 12.44 2.8zM10.58 9.06c0.45 0.13 0.91 0.08 1.35-0.16 0.44-0.24 0.74-0.6 0.87-1.04 0.13-0.45 0.08-0.91-0.16-1.35s-0.6-0.74-1.04-0.87c-0.45-0.13-0.91-0.08-1.35 0.16C9.81 6.04 9.51 6.4 9.38 6.84S9.29 7.75 9.53 8.19C9.77 8.63 10.11 8.92 10.58 9.06zM4.46 8.01c-0.02 1.12-0.94 2-2.05 1.99 -1.12-0.02-2-0.94-1.99-2.05C0.44 6.83 2.5 4.68 2.5 4.68S4.48 6.9 4.46 8.01z"/></svg>