<svg version="1.1" id="Capa_1" xmlns="http://www.w3.org/2000/svg" x="0" y="0" width="160" height="160" viewBox="0 0 160 160" enable-background="new 0 0 160 160" xml:space="preserve"><path fill-rule="evenodd" clip-rule="evenodd" fill="#333333" d="M139 84H20c-2.76 0-5-2.24-5-5V13c0-2.76 2.24-5 5-5h119c2.76 0 5 2.24 5 5v66C144 81.76 141.76 84 139 84zM136.34 16.66c0-1.1-0.9-2-2-2H24.66c-1.1 0-2 0.9-2 2v59.66c0 1.1 0.9 2 2 2h109.69c1.1 0 2-0.9 2-2V16.66z"/><path fill-rule="evenodd" clip-rule="evenodd" fill="#333333" d="M1.98 118.15l9.85-18.11c1.11-2.11 4.18-3.77 6.88-3.77h45.06V82h32.13v14.27h45.36c2.71 0 5.78 1.66 6.88 3.77L158 118.15H1.98z"/><path fill-rule="evenodd" clip-rule="evenodd" fill="#333333" d="M152.84 155H8c-2.76 0-5-2.24-5-5v-29.53h154.84V150C157.84 152.76 155.6 155 152.84 155zM66.09 137.42c0-1.1-0.9-2-2-2H16.47c-1.1 0-2 0.9-2 2v0.61c0 1.1 0.9 2 2 2h47.62c1.1 0 2-0.9 2-2V137.42zM79.85 134.27c-1.9 0-3.44 1.55-3.44 3.46 0 1.91 1.54 3.45 3.44 3.45s3.44-1.55 3.44-3.45C83.29 135.82 81.75 134.27 79.85 134.27zM145.24 137.42c0-1.1-0.9-2-2-2H95.62c-1.1 0-2 0.9-2 2v0.61c0 1.1 0.9 2 2 2h47.62c1.1 0 2-0.9 2-2V137.42z"/></svg>