<svg version="1.1" xmlns="http://www.w3.org/2000/svg" x="0" y="0" width="20" height="20" viewBox="0 0 20 20" enable-background="new 0 0 20 20" xml:space="preserve"><path fill="#FFFFFF" d="M18.38 4.69l-4.11-4.11 -1.2 1.15 2.34 2.34c-1.18 0.49-1.77 1.35-1.77 2.6 0 0.76 0.27 1.41 0.81 1.95 0.54 0.54 1.19 0.81 1.95 0.81 0.42 0 0.78-0.07 1.09-0.21v8.02c0 0.31-0.1 0.57-0.31 0.78 -0.21 0.21-0.47 0.31-0.78 0.31s-0.57-0.1-0.78-0.31c-0.21-0.21-0.31-0.47-0.31-0.78v-5c0-0.59-0.23-1.11-0.68-1.56C14.18 10.23 13.66 10 13.07 10h-1.09V2.24c0-0.59-0.23-1.11-0.68-1.56C10.85 0.23 10.33 0 9.74 0H3.07C2.48 0 1.96 0.23 1.51 0.68 1.06 1.13 0.83 1.65 0.83 2.24V20h11.14v-8.33h1.67v5.57c0 0.76 0.27 1.41 0.81 1.95 0.54 0.54 1.19 0.81 1.95 0.81 0.76 0 1.41-0.27 1.95-0.81 0.54-0.54 0.81-1.19 0.81-1.95V6.67C19.17 5.87 18.91 5.21 18.38 4.69zM10.53 12.61L9.31 13.9 6.4 10.99 3.49 13.9l-1.29-1.29 2.91-2.91L2.21 6.8l1.29-1.29L6.4 8.42l2.91-2.91 1.23 1.29L7.63 9.71 10.53 12.61zM17.19 7.45c-0.21 0.21-0.47 0.31-0.78 0.31s-0.57-0.1-0.78-0.31c-0.21-0.21-0.31-0.47-0.31-0.78s0.1-0.57 0.31-0.78c0.21-0.21 0.47-0.31 0.78-0.31s0.57 0.1 0.78 0.31c0.21 0.21 0.31 0.47 0.31 0.78S17.4 7.24 17.19 7.45z"/></svg>