<svg version="1.1" xmlns="http://www.w3.org/2000/svg" x="0" y="0" width="20" height="20" viewBox="0 0 20 20" enable-background="new 0 0 20 20" xml:space="preserve"><path fill="#FFFFFF" d="M19.18 4.57v12.11c0 0.91-0.33 1.69-1 2.34S16.73 20 15.82 20H9.77c-0.94 0-1.73-0.33-2.38-0.98l-6.56-6.68c0.7-0.68 1.07-1.02 1.09-1.02 0.18-0.16 0.4-0.23 0.66-0.23 0.18 0 0.35 0.04 0.51 0.12l3.59 2.03V3.32c0-0.34 0.12-0.63 0.37-0.88s0.54-0.37 0.88-0.37c0.34 0 0.63 0.12 0.88 0.37s0.37 0.54 0.37 0.88v5.86H10V1.25c0-0.36 0.12-0.66 0.35-0.9S10.89 0 11.25 0s0.66 0.12 0.9 0.35 0.35 0.53 0.35 0.9v7.93h0.82V2.07c0-0.34 0.12-0.63 0.37-0.88s0.54-0.37 0.88-0.37 0.63 0.12 0.88 0.37 0.37 0.54 0.37 0.88v7.11h0.86V4.57c0-0.34 0.12-0.63 0.37-0.88s0.54-0.37 0.88-0.37 0.63 0.12 0.88 0.37S19.18 4.23 19.18 4.57z"/></svg>