<svg version="1.1" xmlns="http://www.w3.org/2000/svg" x="0" y="0" width="20" height="20" viewBox="0 0 20 20" enable-background="new 0 0 20 20" xml:space="preserve"><path fill="#FFFFFF" d="M0 20V8.01h3.66V20H0zM20 8.99l-0.04 0.09H20v1.92c0 0.25-0.04 0.5-0.13 0.75l-2.77 7.03C16.82 19.59 16.27 20 15.45 20H7.28C6.79 20 6.37 19.8 6 19.39c-0.37-0.41-0.55-0.87-0.55-1.41V8.01c0-0.53 0.18-1 0.55-1.41L11.96 0l0.98 1.08c0.26 0.28 0.38 0.62 0.38 1.03v0.33l-0.89 4.59h5.74c0.48 0 0.91 0.2 1.28 0.59C19.82 8 20 8.46 20 8.99z"/></svg>