<svg version="1.1" xmlns="http://www.w3.org/2000/svg" x="0" y="0" width="20" height="20" viewBox="0 0 20 20" enable-background="new 0 0 20 20" xml:space="preserve"><path fill="#FFFFFF" d="M19.44 0.52C19.1 0.17 18.7 0 18.25 0H6.29C5.84 0 5.44 0.17 5.11 0.52c-0.33 0.35-0.5 0.75-0.5 1.2v1.72 10.24c0 0.45 0.17 0.85 0.5 1.18 0.33 0.33 0.73 0.5 1.18 0.5h10.24 1.72c0.45 0 0.85-0.17 1.2-0.5 0.35-0.33 0.52-0.73 0.52-1.18V1.72C19.96 1.27 19.79 0.87 19.44 0.52zM3.97 16.06c-0.33-0.33-0.5-0.73-0.5-1.18V4.65H1.71c-0.45 0-0.85 0.17-1.18 0.52s-0.5 0.75-0.5 1.2v11.95c0 0.45 0.17 0.85 0.5 1.18S1.26 20 1.71 20h11.95c0.45 0 0.85-0.17 1.2-0.5 0.35-0.33 0.52-0.73 0.52-1.18v-1.76H5.15C4.7 16.56 4.31 16.39 3.97 16.06z"/></svg>
