<svg xmlns="http://www.w3.org/2000/svg" xmlns:xlink="http://www.w3.org/1999/xlink" width="40" height="40" viewBox="0 0 40 40">
    <defs>
        <path id="a" d="M9.5 25H19V0H0v25z"/>
    </defs>
    <g fill="none" fill-rule="evenodd" transform="translate(9.5 7)">
        <mask id="b" fill="#fff">
            <use xlink:href="#a"/>
        </mask>
        <path fill="#FEFEFE" d="M17.087 11.207H8.364V5.105c0-1.754 1.675-3.239 3.585-3.239h4.58c.171.002.558.331.558.545v8.796zM6.448 14.75c-.058 1.117-1.098 2.053-2.313 2.053-1.223 0-2.222-.972-2.222-2.166 0-.236.041-.47.12-.69.017-.055.03-.11.039-.166L3.749 8.99h.624c.271 0 .568-.204.657-.452l1.077-2.937h.341v9.149zM16.528 0h-4.58C9.473 0 7.319 1.58 6.66 3.736H4.25a.956.956 0 0 0-.906.631L.203 13.34a.846.846 0 0 0-.043.192c-.105.359-.16.73-.16 1.106 0 2.224 1.855 4.032 4.135 4.032.85 0 1.646-.245 2.313-.659v6.26l.015.73H19V2.41C19 1.17 17.775 0 16.528 0z" mask="url(#b)"/>
    </g>
</svg>
