<svg xmlns="http://www.w3.org/2000/svg" xmlns:xlink="http://www.w3.org/1999/xlink" width="40" height="40" viewBox="0 0 40 40">
    <defs>
        <path id="a" d="M.1 0h14v27H.1z"/>
        <path id="c" d="M.037 0h12v20h-12z"/>
    </defs>
    <g fill="none" fill-rule="evenodd">
        <g transform="translate(18 6)">
            <mask id="b" fill="#fff">
                <use xlink:href="#a"/>
            </mask>
            <path fill="#FFF" d="M10.587 12.207H1.864V6.105c0-1.754 1.675-3.239 3.585-3.239h4.58c.171.002.558.331.558.545v8.796zM-.052 15.75c-.058 1.117-1.098 2.053-2.313 2.053-1.223 0-2.222-.972-2.222-2.166 0-.236.041-.47.12-.69.017-.055.03-.11.039-.166l1.677-4.791h.624c.271 0 .568-.204.657-.452l1.077-2.937h.341v9.149zM10.028 1C11.275 1 12.5 2.169 12.5 3.41V26H-.037l-.015-.73v-6.26a4.384 4.384 0 0 1-2.313.66c-2.28 0-4.135-1.81-4.135-4.033 0-.376.055-.747.16-1.106a.846.846 0 0 1 .043-.192l3.14-8.972a.956.956 0 0 1 .907-.631H.16C.817 2.579 2.971 1 5.448 1h4.58zM4.772 20.977c.579.996 1.778 1.318 2.717.729.94-.59 1.283-1.879.78-2.923l-1.339-2.53A.463.463 0 0 0 6.525 16a.463.463 0 0 0-.406.254L4.776 18.78a2.337 2.337 0 0 0-.004 2.196z" mask="url(#b)"/>
        </g>
        <g transform="matrix(-1 0 0 1 19.6 8)">
            <mask id="d" fill="#fff">
                <use xlink:href="#c"/>
            </mask>
            <path fill="#FFF" fill-rule="nonzero" d="M-17.391 27h16a.575.575 0 0 0 .571-.578v-5.203a.575.575 0 0 0-.571-.578H-2.82V9.283c.187-.473-.335-.09.168-.09.678.014 1.67.633 1.684 1.319v5.324c.003 2.114 2.175 3.737 4.265 3.74 2.083-.021 4.186-1.698 4.23-4.37l.07-6.141 1.177-1.331a.583.583 0 0 0 .16-.564l-.477-1.85 2.074-1.627a.583.583 0 0 0 .09-.801.567.567 0 0 0-.79-.113L6.21 5.635A.58.58 0 0 0 6 6.092v8.984c-.026 1.47-1.201 2.654-2.654 2.674-1.46-.002-2.642-1.198-2.643-2.674V9.752C.684 8.43-.37 7.362-1.677 7.344a2.347 2.347 0 0 0-1.143.289V-7.398C-2.82-8.835-3.971-10-5.391-10c-1.42 0-2.572 1.165-2.572 2.602v2.023c0 .32.256.578.572.578a.575.575 0 0 0 .571-.578v-2.023c0-.799.64-1.446 1.429-1.446s1.428.647 1.428 1.446V5.609H-14.82V-7.398c0-.799.64-1.446 1.429-1.446s1.428.647 1.428 1.446v2.023c0 .32.256.578.572.578a.575.575 0 0 0 .571-.578v-2.023c0-1.437-1.151-2.602-2.571-2.602-1.42 0-2.572 1.165-2.572 2.602V20.64h-1.428a.575.575 0 0 0-.572.578v5.203c0 .153.06.3.168.409.107.108.252.169.404.169zm.571-5.203h14.857v1.734H-16.82v-1.734z" mask="url(#d)"/>
        </g>
    </g>
</svg>
