<svg xmlns="http://www.w3.org/2000/svg" xmlns:xlink="http://www.w3.org/1999/xlink" width="30" height="30" viewBox="0 0 30 30">
    <defs>
        <path id="a" d="M26 26.347v-26H0v26h26z"/>
    </defs>
    <g fill="none" fill-rule="evenodd" transform="translate(2 1.233)">
        <mask id="b" fill="#fff">
            <use xlink:href="#a"/>
        </mask>
        <path fill="#003B5C" d="M19.84 16.74l-2.117-2.16a8.31 8.31 0 0 1-1.472 2.065 7.98 7.98 0 0 1-2.023 1.505l2.51 2.568c.265.269.876.863 1.3.863 1.036 0 1.67.194 2.212-.458.708-.848 2.068-1.85-.41-4.383M10.57 5.052c3.15 0 5.71 2.62 5.71 5.84 0 3.221-2.56 5.84-5.71 5.84-3.148 0-5.711-2.619-5.711-5.84 0-3.22 2.563-5.84 5.711-5.84m0-1.179c-3.756 0-6.812 3.125-6.812 6.963 0 3.843 3.056 6.967 6.812 6.967 3.756 0 6.811-3.124 6.811-6.967 0-3.838-3.055-6.963-6.811-6.963" mask="url(#b)"/>
    </g>
</svg>
